<?xml version="1.0" encoding="utf-8"?>
<!-- Generator: Adobe Illustrator 19.0.0, SVG Export Plug-In . SVG Version: 6.00 Build 0)  -->
<svg version="1.1" id="Layer_1" xmlns="http://www.w3.org/2000/svg" xmlns:xlink="http://www.w3.org/1999/xlink" x="0px" y="0px"
	 viewBox="0 0 24 24" style="enable-background:new 0 0 24 24;" xml:space="preserve">
<style type="text/css">
	.st0{fill:#10B9FF;}
</style>
<g>
	<path class="st0" d="M4.7,1.9l-1-1C-1,5.6-1,13.3,3.6,18l1-1C0.6,12.8,0.6,6.1,4.7,1.9z"/>
	<path class="st0" d="M20.4,0.9l-1,1c4.1,4.2,4.1,10.9,0,15.1l1,1C25,13.3,25,5.6,20.4,0.9z"/>
</g>
<path class="st0" d="M17.4,15.1c3-3.2,3.1-8.2,0.1-11.3l-1,1c2.5,2.6,2.5,6.6,0,9.2c-0.6-0.5-1.2-0.9-1.9-1.2
	c1.3-0.8,2.1-2.3,2.1-3.9c0-2.5-1.9-4.6-4.4-4.6S7.9,6.4,7.9,8.9c0,1.5,0.7,2.9,1.9,3.8C8.9,13,8.2,13.5,7.6,14
	c-2.4-2.6-2.4-6.6,0-9.2l-1-1c-3,3.2-3,8.2,0,11.3c-1.4,1.7-2.2,4-2.2,6.4V24h15.1v-2.5c0-2.3-0.8-4.6-2-6.2
	C17.4,15.1,17.4,15.1,17.4,15.1z M14.5,20.7h-4.4c-0.2,0-0.5-0.1-0.6-0.4c-0.1-0.2-0.1-0.5,0.1-0.7l2.9-3.3h-3v-1.2h4.4
	c0.2,0,0.5,0.1,0.6,0.4c0.1,0.2,0.1,0.5-0.1,0.7l-2.9,3.3h3V20.7z"/>
</svg>
